<svg width="18" height="18" viewBox="0 0 18 18" fill="none" xmlns="http://www.w3.org/2000/svg">
<path id="Mask" fill-rule="evenodd" clip-rule="evenodd" d="M2.58333 8.08333C2.58333 5.05008 5.05008 2.58333 8.08333 2.58333C11.1166 2.58333 13.5833 5.05008 13.5833 8.08333C13.5833 11.1166 11.1166 13.5833 8.08333 13.5833C5.05008 13.5833 2.58333 11.1166 2.58333 8.08333ZM16.9814 15.6852L13.8693 12.5723C14.8346 11.3311 15.4167 9.7755 15.4167 8.08333C15.4167 4.03992 12.1267 0.75 8.08333 0.75C4.03992 0.75 0.75 4.03992 0.75 8.08333C0.75 12.1267 4.03992 15.4167 8.08333 15.4167C9.7755 15.4167 11.3311 14.8346 12.5723 13.8693L15.6852 16.9814C15.864 17.1602 16.0987 17.25 16.3333 17.25C16.568 17.25 16.8027 17.1602 16.9814 16.9814C17.3398 16.623 17.3398 16.0437 16.9814 15.6852Z" fill="black"/>
</svg>
