<svg width="160" height="160" viewBox="0 0 160 160" fill="none" xmlns="http://www.w3.org/2000/svg">
<path id="Vector" d="M124.8 44.8145C120.795 44.8074 116.818 45.4838 113.04 46.8145C114.921 41.5233 115.503 35.8579 114.738 30.2948C113.974 24.7317 111.884 19.4336 108.646 14.8459C105.408 10.2583 101.115 6.51535 96.1294 3.93188C91.1436 1.34842 85.61 0 79.9946 0C74.3792 0 68.8462 1.34842 63.8604 3.93188C58.8745 6.51535 54.582 10.2583 51.3438 14.8459C48.1055 19.4336 46.0161 24.7317 45.2515 30.2948C44.4869 35.8579 45.0692 41.5233 46.9497 46.8145C41.6608 44.9395 35.9991 44.3615 30.4404 45.1289C24.8817 45.8963 19.5884 47.9868 15.0054 51.2246C10.4223 54.4624 6.68317 58.753 4.10254 63.7358C1.52191 68.7186 0.175293 74.2481 0.175293 79.8595C0.175293 85.4709 1.52191 91.0003 4.10254 95.9832C6.68317 100.966 10.4223 105.257 15.0054 108.494C19.5884 111.732 24.8817 113.823 30.4404 114.59C35.9991 115.357 41.6608 114.779 46.9497 112.904C45.0748 118.193 44.4968 123.855 45.2642 129.414C46.0316 134.973 48.122 140.266 51.3599 144.849C54.5977 149.432 58.8883 153.171 63.8711 155.752C68.8539 158.332 74.3832 159.679 79.9946 159.679C85.606 159.679 91.1358 158.332 96.1187 155.752C101.101 153.171 105.392 149.432 108.63 144.849C111.868 140.266 113.958 134.973 114.726 129.414C115.493 123.855 114.915 118.193 113.04 112.904C117.855 114.613 122.985 115.25 128.071 114.769C133.158 114.288 138.078 112.701 142.487 110.12C146.897 107.539 150.689 104.026 153.598 99.8257C156.508 95.6258 158.465 90.8409 159.332 85.8058C160.199 80.7707 159.955 75.6069 158.618 70.6758C157.28 65.7446 154.882 61.1653 151.59 57.258C148.298 53.3507 144.192 50.2099 139.559 48.0553C134.926 45.9007 129.879 44.7844 124.77 44.7845L124.8 44.8145ZM47.04 112.894C54.603 91.5445 54.603 68.2445 47.04 46.8945C68.3901 54.4575 91.69 54.4575 113.04 46.8945C105.477 68.2445 105.477 91.5445 113.04 112.894C91.69 105.331 68.3901 105.331 47.04 112.894Z" fill="white"/>
</svg>
